<?xml version="1.0" encoding="UTF-8"?>
<svg id="Calque_1" data-name="Calque 1" xmlns="http://www.w3.org/2000/svg" viewBox="0 0 288 285">
  <defs>
    <style>
      .cls-1 {
        fill: #ccc;
        stroke-width: 0px;
      }
    </style>
  </defs>
  <path class="cls-1" d="M42.5,136.5c7.2-9.87,16.64-26.08,13-43-5.68-26.36-38.24-31.8-38-50,.24-17.77,31.57-33.16,55-39,34.5-8.59,44.41,5.37,93,7,59.66,2,77.77-17.95,100-2,19.84,14.24,28.61,46.77,20,70-11.71,31.59-48.46,26.9-55,53-6.64,26.48,28.92,40.41,38,94,2.77,16.32,6.89,40.64-6,52-17.95,15.83-60.09-1.25-94-15-30.95-12.55-29.12-16.97-44-19-43.27-5.91-62.71,30.94-91,21C11.75,257.86,1.34,228.39.5,207.5c-1.15-28.64,15.1-56.16,42-71Z"/>
</svg>